<?xml version="1.0" encoding="UTF-8" standalone="no"?>
<!-- Created with Inkscape (http://www.inkscape.org/) -->

<svg
   xmlns:dc="http://purl.org/dc/elements/1.1/"
   xmlns:cc="http://creativecommons.org/ns#"
   xmlns:rdf="http://www.w3.org/1999/02/22-rdf-syntax-ns#"
   xmlns:svg="http://www.w3.org/2000/svg"
   xmlns="http://www.w3.org/2000/svg"
   xmlns:sodipodi="http://sodipodi.sourceforge.net/DTD/sodipodi-0.dtd"
   xmlns:inkscape="http://www.inkscape.org/namespaces/inkscape"
   width="744.09448819"
   height="1052.3622047"
   id="svg2"
   version="1.1"
   inkscape:version="0.48.2 r9819"
   sodipodi:docname="New document 1">
  <defs
     id="defs4" />
  <sodipodi:namedview
     id="base"
     pagecolor="#ffffff"
     bordercolor="#666666"
     borderopacity="1.0"
     inkscape:pageopacity="0.0"
     inkscape:pageshadow="2"
     inkscape:zoom="0.98994949"
     inkscape:cx="621.69315"
     inkscape:cy="396.55546"
     inkscape:document-units="px"
     inkscape:current-layer="layer1"
     showgrid="false"
     inkscape:window-width="800"
     inkscape:window-height="576"
     inkscape:window-x="0"
     inkscape:window-y="24"
     inkscape:window-maximized="1" />
  <metadata
     id="metadata7">
    <rdf:RDF>
      <cc:Work
         rdf:about="">
        <dc:format>image/svg+xml</dc:format>
        <dc:type
           rdf:resource="http://purl.org/dc/dcmitype/StillImage" />
        <dc:title></dc:title>
      </cc:Work>
    </rdf:RDF>
  </metadata>
  <g
     inkscape:label="Layer 1"
     inkscape:groupmode="layer"
     id="layer1">
    <path
       style="fill:none;stroke:#000000;stroke-width:1px;stroke-linecap:butt;stroke-linejoin:miter;stroke-opacity:1"
       d="m 474.28571,572.36218 -1.42857,-78.57143 122.85715,0 1.42857,62.85715 -18.57143,10 35.71428,8.57143 -30,12.85714 31.42858,11.42857 -31.42858,7.14286 20,7.14285 0,37.14286"
       id="path2987"
       inkscape:connector-curvature="0" />
    <path
       style="fill:none;stroke:#000000;stroke-width:1px;stroke-linecap:butt;stroke-linejoin:miter;stroke-opacity:1"
       d="m 464.67017,573.0448 22.72843,0"
       id="path2989"
       inkscape:connector-curvature="0" />
    <path
       style="fill:none;stroke:#000000;stroke-width:1px;stroke-linecap:butt;stroke-linejoin:miter;stroke-opacity:1"
       d="m 452.54834,582.13617 47.98225,0"
       id="path2991"
       inkscape:connector-curvature="0" />
    <path
       style="fill:none;stroke:#000000;stroke-width:1px;stroke-linecap:butt;stroke-linejoin:miter;stroke-opacity:1"
       d="m 466.1854,592.2377 21.2132,-0.50508"
       id="path2993"
       inkscape:connector-curvature="0" />
    <path
       style="fill:none;stroke:#000000;stroke-width:1px;stroke-linecap:butt;stroke-linejoin:miter;stroke-opacity:1"
       d="m 453.30595,600.31892 47.98225,0"
       id="path2991-1"
       inkscape:connector-curvature="0" />
    <path
       style="fill:none;stroke:#000000;stroke-width:1px;stroke-linecap:butt;stroke-linejoin:miter;stroke-opacity:1"
       d="m 581.09025,651.33162 47.98225,0"
       id="path2991-9"
       inkscape:connector-curvature="0" />
    <path
       style="fill:none;stroke:#000000;stroke-width:1px;stroke-linecap:butt;stroke-linejoin:miter;stroke-opacity:1"
       d="m 580.58518,661.93822 47.98225,0"
       id="path2991-8"
       inkscape:connector-curvature="0" />
    <text
       xml:space="preserve"
       style="font-size:40px;font-style:normal;font-weight:normal;line-height:125%;letter-spacing:0px;word-spacing:0px;fill:#000000;fill-opacity:1;stroke:none;font-family:Sans"
       x="420.22345"
       y="602.8443"
       id="text3027"
       sodipodi:linespacing="125%"><tspan
         sodipodi:role="line"
         id="tspan3029"
         x="420.22345"
         y="602.8443">V</tspan></text>
    <text
       xml:space="preserve"
       style="font-size:40px;font-style:normal;font-weight:normal;line-height:125%;letter-spacing:0px;word-spacing:0px;fill:#000000;fill-opacity:1;stroke:none;font-family:Sans"
       x="645.48749"
       y="596.78339"
       id="text3031"
       sodipodi:linespacing="125%"><tspan
         sodipodi:role="line"
         id="tspan3033"
         x="645.48749"
         y="596.78339">R</tspan></text>
    <text
       xml:space="preserve"
       style="font-size:40px;font-style:normal;font-weight:normal;line-height:125%;letter-spacing:0px;word-spacing:0px;fill:#000000;fill-opacity:1;stroke:none;font-family:Sans"
       x="644.47736"
       y="670.52454"
       id="text3035"
       sodipodi:linespacing="125%"><tspan
         sodipodi:role="line"
         id="tspan3037"
         x="644.47736"
         y="670.52454">C</tspan></text>
    <text
       xml:space="preserve"
       style="font-size:40px;font-style:normal;font-weight:normal;line-height:125%;letter-spacing:0px;word-spacing:0px;fill:#000000;fill-opacity:1;stroke:none;font-family:Sans"
       x="651.54834"
       y="750.8316"
       id="text3039"
       sodipodi:linespacing="125%"><tspan
         sodipodi:role="line"
         id="tspan3041"
         x="651.54834"
         y="750.8316">L</tspan></text>
    <path
       style="fill:none;stroke:#000000;stroke-width:1px;stroke-linecap:butt;stroke-linejoin:miter;stroke-opacity:1"
       d="m 604.5763,781.13622 c 0.18548,0 2,0.0203 2.0203,0 0.11905,-0.11904 -0.11905,-0.38603 0,-0.50507 0.1382,-0.1382 1.74631,0.137 2.02031,0 0.21295,-0.10648 0.29211,-0.3986 0.50507,-0.50508 0.274,-0.137 1.88211,0.1382 2.02031,0 0.11904,-0.11905 -0.11905,-0.38603 0,-0.50508 0.23809,-0.23809 0.70898,0.15059 1.01015,0 0.21296,-0.10647 0.29212,-0.39859 0.50508,-0.50507 0.15058,-0.0753 0.35449,0.0753 0.50507,0 0.21296,-0.10648 0.29212,-0.3986 0.50508,-0.50508 0.15058,-0.0753 0.35449,0.0753 0.50507,0 0.21296,-0.10648 0.29212,-0.39859 0.50508,-0.50507 0.30117,-0.15059 0.70898,0.15058 1.01015,0 0.21296,-0.10648 0.29212,-0.3986 0.50508,-0.50508 0.15058,-0.0753 0.35449,0.0753 0.50508,0 0.21295,-0.10648 0.29211,-0.3986 0.50507,-0.50508 0.15059,-0.0753 0.35449,0.0753 0.50508,0 0.21296,-0.10648 0.29212,-0.39859 0.50507,-0.50507 0.15059,-0.0753 0.3545,0.0753 0.50508,0 0.42592,-0.21296 0.58424,-0.7972 1.01015,-1.01016 0.30117,-0.15058 0.77206,0.2381 1.01016,0 0.11904,-0.11904 -0.11905,-0.38602 0,-0.50507 0.23809,-0.2381 0.77205,0.23809 1.01015,0 0.11905,-0.11905 -0.11905,-0.38603 0,-0.50508 0.23809,-0.23809 0.77206,0.2381 1.01015,0 0.11905,-0.11905 -0.11905,-0.38603 0,-0.50507 0.11905,-0.11905 0.38603,0.11904 0.50508,0 0.11904,-0.11905 -0.0753,-0.3545 0,-0.50508 0.10648,-0.21296 0.39859,-0.29212 0.50507,-0.50508 0.0753,-0.15058 -0.0753,-0.35449 0,-0.50507 0.10648,-0.21296 0.3986,-0.29212 0.50508,-0.50508 0.0769,-0.15371 0,-1.28776 0,-1.51523 0,-1.01015 0,-2.0203 0,-3.03046 0,-0.84179 0,-1.68358 0,-2.52538 0,-0.16836 0,-0.33671 0,-0.50507 0,-0.16836 0.0753,-0.3545 0,-0.50508 -0.10648,-0.21296 -0.3986,-0.29212 -0.50508,-0.50508 -0.15058,-0.30117 0.2381,-0.77205 0,-1.01015 -0.11904,-0.11905 -0.38603,0.11905 -0.50507,0 -0.11905,-0.11905 0.0753,-0.35449 0,-0.50507 -0.10648,-0.21296 -0.3986,-0.29212 -0.50508,-0.50508 -0.15058,-0.30117 0.2381,-0.77206 0,-1.01015 -0.11905,-0.11905 -0.38603,0.11904 -0.50508,0 -0.11904,-0.11905 0.0753,-0.3545 0,-0.50508 -0.10647,-0.21296 -0.39859,-0.29212 -0.50507,-0.50508 -0.0753,-0.15058 0.11905,-0.38602 0,-0.50507 -0.11905,-0.11905 -0.38603,0.11905 -0.50508,0 -0.11905,-0.11905 0.0753,-0.35449 0,-0.50508 -0.21296,-0.42592 -0.79719,-0.58423 -1.01015,-1.01015 -0.0753,-0.15059 0.0753,-0.35449 0,-0.50508 -0.10648,-0.21296 -0.33672,-0.33672 -0.50508,-0.50507 -0.57788,-0.57789 -0.70437,-0.5979 -1.01015,-1.51523 -0.0532,-0.15972 0.0753,-0.35449 0,-0.50508 -0.21296,-0.42592 -0.74601,-0.61394 -1.01015,-1.01015 -0.20883,-0.31324 -0.23888,-0.74396 -0.50508,-1.01015 -0.11905,-0.11905 -0.35449,0.0753 -0.50507,0 -0.21296,-0.10648 -0.33672,-0.33672 -0.50508,-0.50508 -0.16836,-0.16836 -0.33672,-0.33672 -0.50508,-0.50508 -1.67512,-1.67512 0.2381,0.47619 -0.50507,-1.01015 -0.10648,-0.21296 -0.33672,-0.33672 -0.50508,-0.50508 -0.16836,-0.16835 -0.33672,-0.33671 -0.50508,-0.50507 -0.2659,-0.26591 -1.24547,-1.38035 -1.51522,-1.51523 -0.15059,-0.0753 -0.3545,0.0753 -0.50508,0 -0.21296,-0.10648 -0.29212,-0.3986 -0.50508,-0.50508 -0.15058,-0.0753 -0.38603,0.11905 -0.50507,0 -0.11905,-0.11904 0.11904,-0.38603 0,-0.50507 -0.2381,-0.2381 -0.70899,0.15058 -1.01016,0 -0.21295,-0.10648 -0.29211,-0.3986 -0.50507,-0.50508 -0.30117,-0.15058 -0.77206,0.2381 -1.01015,0 -0.11905,-0.11905 0.11904,-0.38603 0,-0.50508 -0.11905,-0.11904 -0.3545,0.0753 -0.50508,0 -0.21296,-0.10647 -0.29212,-0.39859 -0.50508,-0.50507 -0.30117,-0.15059 -0.77205,0.23809 -1.01015,0 -0.11905,-0.11905 0.11905,-0.38603 0,-0.50508 -0.11905,-0.11905 -0.33672,0 -0.50508,0 -0.16835,0 -0.33671,0 -0.50507,0 -2.35702,0 -4.71405,0 -7.07107,0 -0.84179,0 -1.68359,0 -2.52538,0 -0.16836,0 -0.33672,0 -0.50508,0 -0.16836,0 -0.35449,-0.0753 -0.50507,0 -0.21296,0.10648 -0.29212,0.3986 -0.50508,0.50508 -0.20026,0.10013 -1.41197,-0.10326 -1.51523,0 -0.11905,0.11905 0.11905,0.38603 0,0.50507 -0.23809,0.2381 -0.77206,-0.23809 -1.01015,0 -0.11905,0.11905 0.11905,0.38603 0,0.50508 -0.11905,0.11905 -0.38603,-0.11905 -0.50508,0 -0.11905,0.11905 0.11905,0.38603 0,0.50508 -0.11905,0.11904 -0.38603,-0.11905 -0.50507,0 -0.2381,0.23809 0.23809,0.77205 0,1.01015 -0.67344,0.67343 -0.50508,-0.84179 -0.50508,0.50508 -0.10648,0.21295 -0.3986,0.29211 -0.50508,0.50507 -0.0664,0.13281 0,1.75619 0,2.02031 0,0.22746 -0.0769,1.36151 0,1.51523 0.10648,0.21295 0.3986,0.29211 0.50508,0.50507 0.20203,0.40406 -0.20203,1.11117 0,1.51523 0.10648,0.21296 0.3986,0.29212 0.50508,0.50508 0.15058,0.30117 -0.2381,0.77205 0,1.01015 0.11904,0.11905 0.38602,-0.11905 0.50507,0 0.2381,0.2381 -0.23809,0.77206 0,1.01015 0.11905,0.11905 0.35449,-0.0753 0.50508,0 2.102,1.05096 -0.53995,-0.0349 0.50507,1.01016 0.11905,0.11904 0.3545,-0.0753 0.50508,0 0.42592,0.21295 0.58424,0.79719 1.01015,1.01015 0.15059,0.0753 0.3545,-0.0753 0.50508,0 0.21296,0.10648 0.29212,0.39859 0.50508,0.50507 0.15058,0.0753 0.38602,-0.11904 0.50507,0 0.11905,0.11905 -0.11905,0.38603 0,0.50508 0.11905,0.11905 0.35449,-0.0753 0.50508,0 1.48633,0.74317 -0.78402,0.50508 1.51523,0.50508 0.22587,0.0753 0.29211,0.39859 0.50507,0.50507 0.11321,0.0566 1.90029,0 2.02031,0 1.17851,0 2.35702,0 3.53553,0 1.01016,0 2.02031,0 3.03046,0 0.33672,0 0.67344,0 1.01015,0 0.16836,0 0.35449,0.0753 0.50508,0 0.21296,-0.10648 0.29212,-0.39859 0.50508,-0.50507 0.31745,-0.15873 1.70285,0.15872 2.0203,0 0.21296,-0.10648 0.29212,-0.3986 0.50508,-0.50508 0.30117,-0.15058 0.70898,0.15058 1.01015,0 0.21296,-0.10648 0.29212,-0.3986 0.50508,-0.50508 0.15058,-0.0753 0.35449,0.0753 0.50507,0 0.21296,-0.10648 0.29212,-0.39859 0.50508,-0.50507 0.30117,-0.15059 0.70898,0.15058 1.01015,0 0.21296,-0.10648 0.29212,-0.3986 0.50508,-0.50508 0.15058,-0.0753 0.38603,0.11905 0.50507,0 0.11905,-0.11905 -0.11904,-0.38603 0,-0.50507 0.11905,-0.11905 0.35449,0.0753 0.50508,0 0.42592,-0.21296 0.58423,-0.7972 1.01015,-1.01016 0.15059,-0.0753 0.35449,0.0753 0.50508,0 0.21296,-0.10648 0.2792,-0.42977 0.50507,-0.50507 0.31944,-0.10648 0.70899,0.15058 1.01016,0 0.15058,-0.0753 -0.11905,-0.38603 0,-0.50508 0.11904,-0.11905 0.35449,0.0753 0.50507,0 0.42592,-0.21296 0.58424,-0.79719 1.01016,-1.01015 0.15058,-0.0753 0.38602,0.11905 0.50507,0 0.11905,-0.11905 -0.11905,-0.38603 0,-0.50508 0.11905,-0.11905 0.35449,0.0753 0.50508,0 0.21296,-0.10648 0.33672,-0.33672 0.50507,-0.50508 0.16836,-0.16835 0.3986,-0.29211 0.50508,-0.50507 0.0753,-0.15059 -0.0753,-0.35449 0,-0.50508 0.10648,-0.21296 0.3986,-0.29212 0.50508,-0.50507 0.0753,-0.15059 -0.11905,-0.38603 0,-0.50508 1.04505,-1.04502 -0.0409,1.59693 1.01015,-0.50508 0.0753,-0.15058 -0.0753,-0.35449 0,-0.50507 0.10648,-0.21296 0.3986,-0.29212 0.50508,-0.50508 0.0753,-0.15058 -0.0532,-0.34536 0,-0.50508 0.11904,-0.35714 0.38602,-0.65301 0.50507,-1.01015 0.0532,-0.15972 -0.0753,-0.35449 0,-0.50507 0.10648,-0.21296 0.3986,-0.29212 0.50508,-0.50508 0.15058,-0.30117 -0.15059,-0.70898 0,-1.01015 0.10648,-0.21296 0.3986,-0.29212 0.50507,-0.50508 0.0769,-0.15371 0,-1.28776 0,-1.51523 0,-0.26411 0.0664,-1.8875 0,-2.0203 -0.10647,-0.21296 -0.39859,-0.29212 -0.50507,-0.50508 -0.137,-0.274 0.1382,-1.8821 0,-2.0203 -0.11905,-0.11905 -0.38603,0.11904 -0.50508,0 -0.23809,-0.2381 0.15059,-0.70899 0,-1.01016 -0.10648,-0.21296 -0.39859,-0.29211 -0.50507,-0.50507 -0.0753,-0.15059 0.11904,-0.38603 0,-0.50508 -0.11905,-0.11905 -0.38603,0.11905 -0.50508,0 -0.11905,-0.11905 0.0753,-0.35449 0,-0.50508 -0.10648,-0.21295 -0.3986,-0.29211 -0.50508,-0.50507 -0.0753,-0.15059 0.0753,-0.35449 0,-0.50508 -0.21296,-0.42592 -0.79719,-0.58423 -1.01015,-1.01015 -0.0753,-0.15059 0.0753,-0.35449 0,-0.50508 -0.21296,-0.42591 -0.79719,-0.58423 -1.01015,-1.01015 -0.0753,-0.15058 0.0753,-0.35449 0,-0.50508 -0.21296,-0.42591 -0.7972,-0.58423 -1.01015,-1.01015 -0.0753,-0.15058 0.0753,-0.35449 0,-0.50507 -0.19292,-0.38583 -1.40123,-1.17322 -1.51523,-1.51523 -0.10648,-0.31944 0.10648,-0.69072 0,-1.01016 -0.0753,-0.22587 -0.33672,-0.33671 -0.50508,-0.50507 -0.16836,-0.16836 -0.33672,-0.33672 -0.50508,-0.50508 -0.16835,-0.16836 -0.33671,-0.33672 -0.50507,-0.50508 -0.16836,-0.16835 -0.3986,-0.29211 -0.50508,-0.50507 -0.0753,-0.15059 0.0753,-0.35449 0,-0.50508 -0.2485,-0.49701 -1.7718,-1.52329 -2.0203,-2.0203 -0.0753,-0.15059 0.0753,-0.35449 0,-0.50508 -0.21296,-0.42592 -0.7972,-0.58423 -1.01016,-1.01015 -0.0753,-0.15059 0.11905,-0.38603 0,-0.50508 -0.11904,-0.11905 -0.35449,0.0753 -0.50507,0 -0.42592,-0.21296 -0.58424,-0.79719 -1.01015,-1.01015 -0.15059,-0.0753 -0.38603,0.11905 -0.50508,0 -0.11905,-0.11905 0.11905,-0.38603 0,-0.50508 -0.11905,-0.11904 -0.38603,0.11905 -0.50508,0 -0.11904,-0.11904 0.11905,-0.38603 0,-0.50507 -0.23809,-0.2381 -0.77205,0.23809 -1.01015,0 -0.11905,-0.11905 0.11905,-0.38603 0,-0.50508 -0.23809,-0.23809 -0.77206,0.2381 -1.01015,0 -0.11905,-0.11905 0.11905,-0.38603 0,-0.50508 -0.2381,-0.23809 -0.77206,0.2381 -1.01015,0 -0.11905,-0.11904 0.11904,-0.38602 0,-0.50507 -0.2381,-0.2381 -0.77206,0.23809 -1.01016,0 -0.11904,-0.11905 0.11905,-0.38603 0,-0.50508 -0.23809,-0.23809 -0.77205,0.2381 -1.01015,0 -0.11905,-0.11905 0.11905,-0.38603 0,-0.50507 -0.10326,-0.10326 -1.31497,0.10013 -1.51523,0 -0.21296,-0.10648 -0.29212,-0.3986 -0.50507,-0.50508 -0.15059,-0.0753 -0.34536,0.0532 -0.50508,0 -0.35714,-0.11905 -0.65301,-0.38603 -1.01015,-0.50508 -0.28497,-0.095 -1.18334,0 -1.51523,0 -1.17851,0 -2.35703,0 -3.53554,0 -0.3513,0 -2.34273,-0.0913 -2.52538,0 -0.21296,0.10648 -0.29212,0.3986 -0.50507,0.50508 -0.30117,0.15058 -0.70899,-0.15059 -1.01016,0 -0.21296,0.10648 -0.29211,0.3986 -0.50507,0.50508 -0.30117,0.15058 -0.70899,-0.15059 -1.01016,0 -0.21295,0.10648 -0.29211,0.39859 -0.50507,0.50507 -0.15059,0.0753 -0.35449,-0.0753 -0.50508,0 -0.21296,0.10648 -0.29212,0.3986 -0.50507,0.50508 -0.15059,0.0753 -0.3545,-0.0753 -0.50508,0 -0.21296,0.10648 -0.29212,0.3986 -0.50508,0.50507 -0.15058,0.0753 -0.35449,-0.0753 -0.50507,0 -0.49701,0.24851 -1.5233,1.7718 -2.02031,2.02031 -0.15058,0.0753 -0.38603,-0.11905 -0.50507,0 -0.2662,0.2662 -0.29626,0.69692 -0.50508,1.01015 -0.26414,0.39622 -0.79719,0.58424 -1.01015,1.01015 -0.0753,0.15059 0.0753,0.3545 0,0.50508 -0.10648,0.21296 -0.3986,0.29212 -0.50508,0.50508 -0.0753,0.15058 0.0753,0.35449 0,0.50507 -0.33842,0.67685 -0.67173,0.33331 -1.01015,1.01016 -0.0913,0.18265 0,2.17408 0,2.52538 0,0.358 -0.0653,2.89987 0,3.03046 0.10648,0.21295 0.39859,0.29211 0.50507,0.50507 0.0753,0.15059 -0.11904,0.38603 0,0.50508 0.11905,0.11905 0.38603,-0.11905 0.50508,0 0.11905,0.11905 -0.11905,0.38603 0,0.50507 0.11905,0.11905 0.35449,-0.0753 0.50508,0 0.42591,0.21296 0.58423,0.7972 1.01015,1.01016 0.15058,0.0753 0.35449,-0.0753 0.50508,0 0.21295,0.10648 0.29211,0.39859 0.50507,0.50507 0.15059,0.0753 0.35449,-0.0753 0.50508,0 0.42592,0.21296 0.5584,0.85957 1.01015,1.01016 0.31944,0.10647 0.69072,-0.10648 1.01015,0 0.22588,0.0753 0.2792,0.42977 0.50508,0.50507 0.63888,0.21296 1.36698,-0.16333 2.0203,0 0.36523,0.0913 0.64494,0.41378 1.01016,0.50508 0.32666,0.0817 0.67997,-0.066 1.01015,0 0.52206,0.10441 0.99317,0.40066 1.51523,0.50507 0.33018,0.066 0.67343,0 1.01015,0 0.50508,0 1.01015,0 1.51523,0 2.35702,0 4.71405,0 7.07107,0 2.0203,0 4.04061,0 6.06091,0 0.52524,0 2.63316,0.0993 3.03046,0 0.36522,-0.0913 0.65301,-0.38602 1.01015,-0.50507 0.45457,-0.15153 1.06066,0.15152 1.51523,0 0.22588,-0.0753 0.29212,-0.3986 0.50508,-0.50508 0.15058,-0.0753 0.34536,0.0532 0.50507,0 0.35715,-0.11905 0.65301,-0.38603 1.01016,-0.50507 0.15972,-0.0532 0.35449,0.0753 0.50507,0 0.21296,-0.10648 0.29212,-0.3986 0.50508,-0.50508 0.15058,-0.0753 0.35449,0.0753 0.50508,0 0.21295,-0.10648 0.29211,-0.3986 0.50507,-0.50508 0.15059,-0.0753 0.35449,0.0753 0.50508,0 0.42592,-0.21296 0.58423,-0.79719 1.01015,-1.01015 0.15059,-0.0753 0.35449,0.0753 0.50508,0 0.42592,-0.21296 0.58423,-0.79719 1.01015,-1.01015 0.15058,-0.0753 0.38603,0.11905 0.50508,0 0.11904,-0.11905 -0.0753,-0.35449 0,-0.50508 0.21295,-0.42592 0.79719,-0.58423 1.01015,-1.01015 0.0753,-0.15059 -0.0753,-0.35449 0,-0.50508 0.10648,-0.21296 0.3986,-0.29211 0.50507,-0.50507 0.0753,-0.15059 -0.0753,-0.3545 0,-0.50508 0.10648,-0.21296 0.3986,-0.29212 0.50508,-0.50508 0.15059,-0.30117 -0.15058,-0.70898 0,-1.01015 0.10648,-0.21296 0.3986,-0.29212 0.50508,-0.50508 0.0753,-0.15058 -0.0753,-0.35449 0,-0.50507 0.10648,-0.21296 0.42977,-0.2792 0.50507,-0.50508 0.10648,-0.31944 -0.10648,-0.69071 0,-1.01015 0.0753,-0.22588 0.3986,-0.29212 0.50508,-0.50508 0.0753,-0.15058 -0.0532,-0.34535 0,-0.50507 0.11905,-0.35715 0.38603,-0.65301 0.50508,-1.01016 0.10648,-0.31943 -0.10648,-0.69071 0,-1.01015 0.11904,-0.35714 0.41377,-0.64493 0.50507,-1.01015 0.0817,-0.32666 -0.10648,-0.69071 0,-1.01015 0.0753,-0.22588 0.3986,-0.29212 0.50508,-0.50508 0.0753,-0.15058 -0.0532,-0.34536 0,-0.50508 0.11905,-0.35714 0.38603,-0.65301 0.50508,-1.01015 0.0532,-0.15972 0,-0.33672 0,-0.50507 0,-0.33672 0,-0.67344 0,-1.01016 0,-0.39008 0.10271,-2.72231 0,-3.03045 -0.11905,-0.35715 -0.38603,-0.65301 -0.50508,-1.01016 -0.10648,-0.31944 0,-0.67343 0,-1.01015 0,-0.4588 0.10929,-3.20765 0,-3.53553 -0.0753,-0.22588 -0.3986,-0.29212 -0.50508,-0.50508 -0.15058,-0.30117 0.15059,-0.70898 0,-1.01015 -0.10648,-0.21296 -0.39859,-0.29212 -0.50507,-0.50508 -0.15059,-0.30117 0.15058,-0.70898 0,-1.01015 -0.10648,-0.21296 -0.3986,-0.29212 -0.50508,-0.50508 -0.15058,-0.30117 0.2381,-0.77205 0,-1.01015 -0.11905,-0.11905 -0.38603,0.11905 -0.50508,0 -0.11904,-0.11905 0.0753,-0.35449 0,-0.50508 -0.21296,-0.42591 -0.79719,-0.58423 -1.01015,-1.01015 -0.0753,-0.15058 0.0753,-0.35449 0,-0.50508 -0.10648,-0.21295 -0.3986,-0.29211 -0.50508,-0.50507 -0.0753,-0.15059 0.11905,-0.38603 0,-0.50508 -0.11904,-0.11905 -0.38602,0.11905 -0.50507,0 -0.11905,-0.11905 0.11905,-0.38603 0,-0.50507 -0.11905,-0.11905 -0.38603,0.11904 -0.50508,0 -0.11905,-0.11905 0.11905,-0.38603 0,-0.50508 -0.11905,-0.11905 -0.38603,0.11905 -0.50507,0 -0.11905,-0.11905 0.11904,-0.38603 0,-0.50508 -0.11905,-0.11904 -0.38603,0.11905 -0.50508,0 -0.11905,-0.11904 0.11905,-0.38603 0,-0.50507 -0.11905,-0.11905 -0.38603,0.11904 -0.50508,0 -0.11904,-0.11905 0.11905,-0.38603 0,-0.50508 -0.23809,-0.23809 -0.77205,0.2381 -1.01015,0 -0.11905,-0.11905 0.11905,-0.38603 0,-0.50508 -0.11905,-0.11904 -0.35449,0.0753 -0.50508,0 -0.21295,-0.10647 -0.29211,-0.39859 -0.50507,-0.50507 -0.30117,-0.15059 -0.77206,0.23809 -1.01015,0 -0.11905,-0.11905 0.11904,-0.38603 0,-0.50508 -0.2381,-0.23809 -0.70899,0.15059 -1.01016,0 -0.42591,-0.21296 -0.58423,-0.79719 -1.01015,-1.01015 -0.30117,-0.15058 -0.77206,0.23809 -1.01015,0 -0.11905,-0.11905 0.11905,-0.38603 0,-0.50508 -0.2381,-0.23809 -0.77206,0.2381 -1.01015,0 -0.11905,-0.11904 0.11904,-0.38603 0,-0.50507 -0.2381,-0.2381 -0.70899,0.15058 -1.01016,0 -0.21296,-0.10648 -0.29211,-0.3986 -0.50507,-0.50508 -0.20026,-0.10013 -1.41198,0.10326 -1.51523,0 -0.11905,-0.11905 0.11905,-0.38603 0,-0.50508 -0.10326,-0.10325 -1.31497,0.10013 -1.51523,0 -0.21296,-0.10647 -0.29212,-0.39859 -0.50508,-0.50507 -0.27399,-0.137 -1.8821,0.1382 -2.0203,0 -0.11905,-0.11905 0.11905,-0.38603 0,-0.50508 -0.0203,-0.0203 -1.83482,0 -2.02031,0 -1.34687,0 0.16836,0.16836 -0.50507,-0.50507 -0.11905,-0.11905 -0.33672,0 -0.50508,0 -1.01015,0 -2.0203,0 -3.03046,0 l -0.50507,-30.80966"
       id="path3045"
       inkscape:connector-curvature="0" />
    <path
       style="fill:none;stroke:#000000;stroke-width:1px;stroke-linecap:butt;stroke-linejoin:miter;stroke-opacity:1"
       d="m 476.792,600.82399 4.04061,221.22341 126.26907,1.01015 -1.01015,-42.4264"
       id="path3047"
       inkscape:connector-curvature="0" />
  </g>
</svg>
